<?xml version="1.0" encoding="UTF-8"?>
<svg xmlns="http://www.w3.org/2000/svg" viewBox="0 0 64 64">
  <defs>
    <linearGradient id="g" x1="0%" y1="0%" x2="100%" y2="100%">
      <stop offset="0%" stop-color="#43d854" />
      <stop offset="100%" stop-color="#128c7e" />
    </linearGradient>
  </defs>
  <rect width="64" height="64" rx="14" fill="url(#g)" />
  <path fill="#fff" d="M26.6 14C19.4 14 13.5 19.9 13.5 27c0 3.5 1.3 6.8 3.7 9.3l-2.5 9.6 9.9-2.6c2.3 1.3 4.9 2 7.6 2 7.2 0 13.1-5.9 13.1-13.1s-5.9-13.2-13.1-13.2h-5.6zm5.4 5.1c4.9 0 8.9 4 8.9 8.9s-4 8.9-8.9 8.9c-1.9 0-3.7-.6-5.3-1.6l-.5-.3-5.8 1.5 1.6-5.7-.4-.6c-1.3-1.6-2-3.6-2-5.7 0-4.9 4-8.9 8.9-8.9h3.5zm-3.3 3.7c-.2 0-.6.1-.9.6l-1.3 1.9c-.2.3-.3.7-.1 1 1 1.9 2.5 3.5 4.3 4.6.3.2.7.2 1 0l1.9-1.1c.4-.2.7-.5.8-.9l.1-.5c.1-.3 0-.6-.3-.7l-1.8-.8c-.2-.1-.4 0-.6.2l-.7.7c-.1.1-.3.1-.4 0-1.1-.6-2-1.5-2.6-2.6-.1-.1-.1-.3 0-.4l.6-.7c.2-.2.3-.4.2-.6l-.8-1.8c-.1-.4-.4-.5-.7-.5z" />
</svg>
